<?xml version="1.0" encoding="utf-8"?>
<!-- Generator: Adobe Illustrator 23.1.0, SVG Export Plug-In . SVG Version: 6.00 Build 0)  -->
<svg version="1.1" id="Layer_1" xmlns="http://www.w3.org/2000/svg" xmlns:xlink="http://www.w3.org/1999/xlink" x="0px" y="0px"
	 viewBox="0 0 688.6 174.2" style="enable-background:new 0 0 688.6 174.2;" xml:space="preserve">
<style type="text/css">
	.st0{fill:#FFFFFF;}
</style>
<g>
	<g>
		<g>
			<g>
				<path class="st0" d="M459.8,34.9"/>
			</g>
		</g>
		<g>
			<path class="st0" d="M582.1,56.7c4.2-3.9,12-7.1,26.4-7.7c28.4-1.3,32.8-2.8,43.2-8.2c9.2-4.8,19-14.2,22.3-23.8
				c-5.2,3.2-11.5,5.6-17.9,7.3c-15.1,4-31.9,4.7-41.5,4.7c-2.1,0-3.9,0-5.2-0.1c-11.6-0.4-16.8-1.2-29-1.2c-1.9,0-4,0-6.3,0.1
				c-11.2,0.2-18.9,7.2-22,10.7c-0.3,0.3-0.5,0.6-0.7,0.8c4,4.6,8.4,8.6,11.4,11.4c2.2,2.2,8.1,6.7,15.2,12.6
				C578.4,61.6,579.6,59,582.1,56.7z"/>
			<path class="st0" d="M574,25.2c2.3,0,4.4-0.1,6.3-0.1c12.4,0,17.6,0.8,29.1,1.2c1.3,0,3.1,0.1,5.2,0.1c9.5,0,26.1-0.7,40.9-4.6
				C670.5,18.3,681.3,10.5,685,0c-12.2,12.2-43.9,12.8-62.1,11.5c-18.9-1.4-52.4-7.5-58.3-8c-3.5-0.2-7.8-0.3-11.8,1.5
				c-4,1.9-7.6,5.8-9.4,11.3c-0.5,1.6-0.7,3.2-0.7,4.8c-0.1,5.6,3,11.2,7,16.2C552.7,33.8,561.1,25.5,574,25.2z"/>
			<path class="st0" d="M577,142.4c0-4.3-1.1-8.4-2.6-11.3c-7-13.6-21.6-27.3-34.4-41.5c-12.9-14.5-38.2-36.5-38.4-58.2
				c0-2.8,0.8-5.4,2-8c-4.6,5.2-20.6,26.2-11.1,55.7c3.4,10.6,14.8,24.6,26.9,42.1c11.6,16.9,14.2,38.7,13.6,50.5
				C569,170,576.9,155.1,577,142.4z"/>
			<path class="st0" d="M652.9,43c-10.5,5.5-15.9,7.2-44.2,8.5c-23.2,1.1-27.2,11.2-28.1,14.1c2.9,2.5,6,5.2,9.1,8.1
				C595,78.8,600.5,84,605,89.4c0-13.9,10.6-15.7,13.2-17.2c3.3-2,10.1-3.1,24.8-11.5c15.7-9,19.2-21.4,19.8-25
				C659.8,38.6,656.4,41.1,652.9,43z"/>
			<path class="st0" d="M587.1,76.4c-11.4-10.7-22.8-19.7-26.6-23.3c-6.2-6.1-20.9-17.8-21-31.9c0-1.9,0.3-3.8,0.9-5.7
				c2-6.5,7.9-10.3,12.6-12.4c-9.5-1.2-38.1,1-46.2,18c-1.5,3.1-2.2,6.3-2.2,9.5c-0.2,19.2,24,41.7,37.2,56.3
				c12.7,14.1,28,27.5,35.5,41.8c1.8,3.4,3.3,8.2,3.2,13.2c-0.4,12-4.6,16.4-6.7,17.8c45.8-24.6,37.2-48.4,37.2-48.4
				C609,100.3,598.5,87.1,587.1,76.4z"/>
		</g>
	</g>
	<g>
		<g>
			<polygon class="st0" points="441.6,86 458.8,35.8 448.4,35.8 431.2,86 			"/>
			<polygon class="st0" points="288.5,86 305.6,35.8 295.3,35.8 278.1,86 			"/>
			<polygon class="st0" points="213.3,86 230.5,35.8 220.1,35.8 202.9,86 			"/>
			<path class="st0" d="M431.5,35.8l-13.3,39.2h-8.2l1.4-4.2c1.6-4.8-0.6-8.7-4.9-8.7h-28.8c-1.8,0-3.6,0.6-5.3,1.8l9.5-28h-10.3
				l-13.3,39.2h-6.8l4.6-13.5h-10.4l-4.5,13.5h-25.4l3.1-9.3h-11.9L299.9,87l-9.8,0c-0.8,3.2-0.5,5.9,0.9,8.1c1.5,2.2,4.3,3,7.3,3
				c2.9,0,5.7-0.7,8.4-2.8c2.7-2.2,4-5,5.1-8.2l0.3-1l112.7,0l17-50.3L431.5,35.8L431.5,35.8z M399.5,75.6h-31.1
				c0.7-2.2,1.8-3.9,3.7-3.9h25.1C399.3,71.7,400.3,73.4,399.5,75.6z"/>
			<path class="st0" d="M248.8,76.1c-5.6,1.4-9.4,7.3-10.4,10.9c-0.8,3.2-0.5,5.9,0.9,8.1c1.4,2.2,6.4,4.2,9.4,4.2
				c2.9,0,10.1,0,16.1-4.1c2.9-2,5.6-5,6.7-8.2l0.4-1l3.8-11.1l3.2-9.3h-11.9L259.9,86h-14.4L248.8,76.1z"/>
			<path class="st0" d="M213.8,35.8h-10.3l-13.4,39.2h-24.4l0.4-1.3c0.7-2,2.6-3.5,4.4-3.5h12.3l3.8-11.1c-2.1,0-2.2,1.2-4.4,1.2
				h-18.3c-2.2,0-5.1,2-5.9,4.4l-3.5,10.3h-12.7c0-5.2-3.4-8.9-8.9-8.9c-5.5,0-11.5,3.7-15.1,8.9h-14.6l13.4-39.2h-10.3L89,86h25.4
				c0.6,4.3,3.8,7.3,8.8,7.3c4.9,0,10.3-3,14-7.3h59.5L213.8,35.8z M131.6,79.5c-0.8,2.1-3,3.8-5,3.8s-3-1.7-2.3-3.8
				c0.7-2.1,3-3.9,5-3.9C131.3,75.6,132.3,77.3,131.6,79.5z"/>
			<path class="st0" d="M80.7,65.3L77.2,75l-17.4,0l6.5-19c-1,0.2-4,4.2-8.4,4.2H39.7c-2.2,0-5.1,2-5.9,4.4l-0.3,1l0,0L31.6,71
				L29,78.7l0,0L26.5,86H12.1l3.4-9.9C9.8,77.5,6.1,83.4,5,87c-0.8,3.2-0.5,5.9,0.9,8.1c1.5,2.2,6.4,4.2,9.4,4.2
				c2.9,0,10.1,0,16.1-4.1c2.9-2,5.6-5,6.7-8.2l0.3-1l3.7-11.1l1.2-3.7h7.4l-5,14.7l34.6-0.3c0.7,0,1.5-0.3,2.3-0.8
				c0.8-0.5,1.3-1.2,1.6-2l5.9-17.5H80.7z"/>
			<path class="st0" d="M82.7,56c-0.4,3,1.5,5.4,4.2,5.4c2.7,0,5.2-2.4,5.6-5.4c0.4-3-1.4-5.4-4.1-5.4C85.6,50.7,83.1,53.1,82.7,56z
				"/>
			<path class="st0" d="M16.9,106.2c-0.4,2.7,1.3,4.8,3.7,4.8s4.6-2.2,5-4.8c0.4-2.7-1.3-4.8-3.7-4.8
				C19.5,101.4,17.3,103.5,16.9,106.2z"/>
			<path class="st0" d="M5.6,106.2c-0.4,2.7,1.3,4.8,3.7,4.8c2.4,0,4.6-2.2,5-4.8c0.3-2.7-1.3-4.8-3.7-4.8
				C8.2,101.4,5.9,103.5,5.6,106.2z"/>
			<path class="st0" d="M336.1,95.4c-0.4,2.7,1.3,4.8,3.7,4.8c2.4,0,4.6-2.2,5-4.8c0.4-2.7-1.3-4.8-3.7-4.8
				C338.7,90.6,336.5,92.7,336.1,95.4z"/>
			<path class="st0" d="M324.8,95.4c-0.4,2.7,1.3,4.8,3.7,4.8c2.4,0,4.6-2.2,5-4.8c0.3-2.7-1.3-4.8-3.7-4.8
				C327.4,90.6,325.1,92.7,324.8,95.4z"/>
			<path class="st0" d="M251.9,63.8c-0.4,3,1.5,5.4,4.2,5.4c2.7,0,5.2-2.4,5.6-5.4c0.4-3-1.5-5.4-4.1-5.4
				C254.8,58.4,252.3,60.8,251.9,63.8z"/>
			<path class="st0" d="M164.8,45.5c-2.7,0-5.2,2.4-5.6,5.4c-0.1,0.4-0.1,0.8,0,1.2v0c0,0.9-5.5,1.2-5.5,1.2l-1.4,4.4
				c0,0,6.9-0.7,11.5-1.5c0.2,0,0.4,0,0.6-0.1h0l0,0c2.3-0.5,4.2-2.7,4.5-5.3C169.4,47.9,167.5,45.5,164.8,45.5z M165.6,51
				c-0.1,1-1,1.8-1.9,1.8c-0.9,0-1.6-0.8-1.4-1.8c0.1-1,1-1.8,1.9-1.8C165.1,49.1,165.7,50,165.6,51z"/>
		</g>
		<g>
			<path class="st0" d="M4.2,154.3l4-12.9c4.4-14,16.6-16.7,32.6-16.7c16,0,26.5,2.7,22.1,16.7l-4,12.9c-4.4,14-16.6,16.7-32.6,16.7
				C10.3,170.9-0.2,168.3,4.2,154.3z M43,152.9l3.2-10.3c2.1-6.7-0.6-7.4-8.8-7.4c-8.2,0-11.1,0.7-13.4,7.4l-3.2,10.3
				c-1.9,6.8,0.6,7.5,8.8,7.5C37.8,160.4,40.9,159.7,43,152.9z"/>
			<path class="st0" d="M76.9,170.6H61.1L75.4,125h25l2.3,28.6h0.6l19.7-28.6h25.6l-14.3,45.6h-15.7l12.5-34.9h-0.6l-25.9,34.9H90.9
				l-4.2-34.9h-0.4L76.9,170.6z"/>
			<path class="st0" d="M160.6,162.7l-5.4,7.9h-16.4l32-45.6h23.9l3.7,45.6h-16.1l-0.6-7.9H160.6z M180.3,134.1h-0.1l-13.4,19.8
				h14.6L180.3,134.1z"/>
			<path class="st0" d="M218.3,170.6h-15.8l14.3-45.6h26.6l5.9,35h0.6l10-35h15.8l-14.3,45.6h-26.9l-5.7-35h-0.6L218.3,170.6z"/>
			<path class="st0" d="M313.1,162.7l-5.4,7.9h-16.4l32-45.6h23.9l3.7,45.6h-16.1l-0.6-7.9H313.1z M332.8,134.1h-0.2l-13.4,19.8
				h14.6L332.8,134.1z"/>
			<path class="st0" d="M370.6,170.6h-15.8l14.3-45.6h15.7L370.6,170.6z"/>
			<path class="st0" d="M394.3,125h30.4c13.6,0.2,19.5,2.4,16,13.8c-2.4,7.6-3.8,12-15.6,14l-0.2,0.5c6.4,0.2,9.7,2.9,8.1,8.1
				l-2.9,9.2h-15.8l2-6.4c1.2-3.4,0-5.7-4.7-5.7h-12.2l-3.8,12.1h-15.8L394.3,125z M415,147.9c6.8,0,7.2-1.9,8.8-7.1
				c1.3-4.1,0.3-5.2-4.9-5.2h-12.2l-3.9,12.3H415z"/>
		</g>
	</g>
</g>
</svg>
